:SAMPLES-PER-SECOND 30
:FULLY-SPECIFIED
:DEGREES
1603
root  47.8498 37.8155 10.7165 153.188 -83.7035 -160.268
RightUpLeg  -14.9965 -9.08478 -1.79108
RightLeg  17.654 2.35351 1.28619
RightFoot  4.70296 0.0132325 0.141201
RightToes  3.49245e-010 0 -3.6325e-017
Spine  3.65591 -2.60165 7.68691
Spine1  15.0551 -2.8643 3.29292
HEad  12.2725 -32.8209 -24.863
LeftShoulder1  0.100424 3.21502 -28.6168
LeftArm  -16.341 12.7899 -37.8413
LeftForeArm  81.1498 -78.7687 -101.655
LeftHand  -0.068286 0.597068 1.59468
RightShoulder  -0.529968 -5.18607 24.7129
RightArm  -11.3688 -9.63845 32.4217
RightForeArm  113.491 69.3017 147.094
RightHand  -0.138973 -0.292721 -3.15609
LeftUpLeg  9.65451 -8.1799 4.00048
LeftLeg  37.0954 -14.796 -11.39
LeftFoot  -13.589 0.06606 -2.03839
LeftToes  -2.21735e-009 9.83027e-011 -4.04511e-011
1604
root  47.1198 37.9226 10.1974 141.363 -85.3703 -148.211
RightUpLeg  -14.0716 -9.76037 -1.50622
RightLeg  18.7346 0.923184 1.20479
RightFoot  2.68994 0.0537143 -0.278035
RightToes  3.49245e-010 0 -3.6325e-017
Spine  4.09681 -3.00545 8.58253
Spine1  14.5622 -3.01855 3.65053
HEad  11.9752 -33.9663 -22.6407
LeftShoulder1  0.164439 3.02666 -28.3022
LeftArm  -15.9113 12.4475 -38.182
LeftForeArm  79.0703 -78.8841 -99.0194
LeftHand  -0.0623167 0.893799 1.50989
RightShoulder  -0.569889 -5.30244 24.9247
RightArm  -11.2864 -10.4215 31.9259
RightForeArm  113.914 69.0939 147.491
RightHand  -0.110548 -0.334402 -2.52916
LeftUpLeg  5.11379 -7.49454 6.34988
LeftLeg  44.6008 -14.5491 -14.4557
LeftFoot  -6.45875 0.400434 -8.19439
LeftToes  -2.21735e-009 9.83027e-011 -4.04511e-011
1605
root  46.3837 38.0008 9.71963 124.595 -85.9267 -130.944
RightUpLeg  -13.4108 -9.50318 -0.681391
RightLeg  19.4824 -0.555493 0.926221
RightFoot  0.88149 0.0444739 -0.3632
RightToes  3.49245e-010 0 -3.6325e-017
Spine  3.35914 -3.02293 10.3937
Spine1  15.2044 -2.69637 3.03839
HEad  10.9505 -35.0218 -21.6387
LeftShoulder1  0.185345 2.96504 -28.2568
LeftArm  -15.6721 11.4263 -38.3373
LeftForeArm  78.7117 -78.9203 -98.2869
LeftHand  -0.0583022 1.68578 1.56156
RightShoulder  -0.545937 -5.24666 24.5429
RightArm  -11.768 -11.2555 31.8412
RightForeArm  114.41 68.7742 148.072
RightHand  -0.0977274 -1.1517 -2.52081
LeftUpLeg  0.131746 -6.69521 8.19657
LeftLeg  51.2709 -11.1627 -14.1104
LeftFoot  -0.209553 1.11278 -11.6834
LeftToes  -2.21735e-009 9.83027e-011 -4.04511e-011
1606
root  45.6592 38.1651 9.27166 109.35 -87.1325 -116.53
RightUpLeg  -10.9412 -10.1831 -1.33211
RightLeg  19.5295 -1.32126 1.06638
RightFoot  -0.785085 0.0754399 -0.877164
RightToes  3.49245e-010 0 -3.6325e-017
Spine  4.67257 -3.19747 10.4126
Spine1  14.3762 -2.46724 2.81886
HEad  11.3217 -35.2529 -20.9496
LeftShoulder1  0.22423 2.84183 -27.728
LeftArm  -15.1804 11.076 -38.8879
LeftForeArm  77.1845 -78.973 -96.5256
LeftHand  -0.0768617 1.15036 1.9629
RightShoulder  -0.541451 -5.23007 24.5732
RightArm  -11.8174 -11.8272 31.1817
RightForeArm  114.036 68.6742 148.191
RightHand  -0.0766633 -1.04833 -1.90684
LeftUpLeg  -2.8168 -5.58119 8.33137
LeftLeg  55.6778 -7.48783 -11.1517
LeftFoot  1.7793 1.08562 -9.4586
LeftToes  -2.21735e-009 9.83027e-011 -4.04511e-011
1607
root  44.8945 38.4052 8.83143 103.322 -88.0735 -111.029
RightUpLeg  -8.35894 -10.7425 -2.14282
RightLeg  18.5805 -1.33019 1.5315
RightFoot  -1.8682 0.110402 -1.47785
RightToes  3.49245e-010 0 -3.6325e-017
Spine  4.89344 -3.00956 10.3954
Spine1  14.3737 -1.93033 1.78572
HEad  11.5268 -35.617 -22.4384
LeftShoulder1  0.281667 2.66692 -27.4889
LeftArm  -15.0306 10.5343 -39.1109
LeftForeArm  75.4213 -78.9961 -94.9311
LeftHand  -0.0792823 1.05571 1.98139
RightShoulder  -0.599159 -5.40804 24.7216
RightArm  -11.6526 -11.2063 30.6854
RightForeArm  112.864 68.9759 147.571
RightHand  -0.124901 -0.3123 -2.84215
LeftUpLeg  -5.55141 -4.14363 7.76871
LeftLeg  58.2075 -4.18839 -6.78058
LeftFoot  0.621839 0.7363 -7.07217
LeftToes  -2.21735e-009 9.83027e-011 -4.04511e-011
1608
root  44.1612 38.5859 8.44435 103.843 -88.7632 -111.351
RightUpLeg  -6.8836 -10.6863 -2.45485
RightLeg  17.8725 -1.53876 1.49198
RightFoot  -2.95561 0.0923634 -1.53417
RightToes  3.49245e-010 0 -3.6325e-017
Spine  4.43828 -2.81598 10.4188
Spine1  14.179 -1.61038 0.950959
HEad  10.8264 -37.9919 -27.1923
LeftShoulder1  0.250654 2.76572 -27.7996
LeftArm  -15.2461 10.5047 -38.8703
LeftForeArm  76.0061 -79.0027 -95.2369
LeftHand  -0.048124 1.19878 1.17025
RightShoulder  -0.53916 -5.24203 24.2276
RightArm  -11.4832 -10.5796 31.1179
RightForeArm  112.099 69.3143 146.917
RightHand  -0.142038 -0.467759 -3.24579
LeftUpLeg  -8.71165 -2.53521 7.16702
LeftLeg  58.9944 -2.63895 -4.22824
LeftFoot  0.106658 0.580726 -5.79962
LeftToes  -2.21735e-009 9.83027e-011 -4.04511e-011
1609
root  43.4576 38.6923 8.08749 100.829 -89.3042 -107.792
RightUpLeg  -6.14132 -10.989 -2.68179
RightLeg  17.8114 -1.57485 1.69534
RightFoot  -4.22755 0.0746939 -1.66069
RightToes  3.49245e-010 0 -3.6325e-017
Spine  3.83222 -2.65517 10.9764
Spine1  13.6713 -1.17612 -0.398955
HEad  11.3561 -36.5555 -27.2643
LeftShoulder1  0.189418 2.94313 -27.628
LeftArm  -15.3395 10.4763 -38.694
LeftForeArm  75.3471 -78.9621 -95.4447
LeftHand  -0.0949411 0.960939 2.37651
RightShoulder  -0.512191 -5.15711 24.1598
RightArm  -11.5689 -10.1989 31.5834
RightForeArm  113.156 69.3556 146.964
RightHand  -0.0672071 -1.35597 -1.77609
LeftUpLeg  -11.9078 -1.45149 6.41084
LeftLeg  58.0342 -2.6296 -4.02031
LeftFoot  -1.1541 0.508261 -5.62788
LeftToes  -2.21735e-009 9.83027e-011 -4.04511e-011
1610
root  42.7518 38.7438 7.72991 83.3711 -89.2808 -89.9755
RightUpLeg  -5.20962 -10.7115 -2.17089
RightLeg  17.6979 -2.10549 1.53886
RightFoot  -5.49932 0.050788 -1.72712
RightToes  3.49245e-010 0 -3.6325e-017
Spine  3.00709 -2.35816 11.615
Spine1  13.739 -0.833099 -1.12425
HEad  11.2134 -34.8722 -27.7927
LeftShoulder1  0.200647 2.90778 -27.518
LeftArm  -15.577 10.36 -38.6178
LeftForeArm  76.2879 -78.9494 -96.3028
LeftHand  -0.108888 0.552035 2.53864
RightShoulder  -0.561538 -5.31301 24.2491
RightArm  -11.7058 -9.43312 31.8694
RightForeArm  113.377 69.3839 146.94
RightHand  -0.0790981 -1.11896 -2.00013
LeftUpLeg  -14.4605 -0.550821 6.22094
LeftLeg  55.4501 -3.91623 -5.59676
LeftFoot  -2.61293 0.459597 -5.81646
LeftToes  -2.21735e-009 9.83027e-011 -4.04511e-011
